<?xml version="1.0" encoding="UTF-8" ?>
<!DOCTYPE svg PUBLIC "-//W3C//DTD SVG 1.1//EN" "http://www.w3.org/Graphics/SVG/1.1/DTD/svg11.dtd">
<svg width="1368pt" height="421pt" viewBox="0 0 1368 421" version="1.1" xmlns="http://www.w3.org/2000/svg">
<path fill="#ffffff" d=" M 0.00 0.00 L 1368.00 0.00 L 1368.00 421.00 L 0.00 421.00 L 0.00 0.00 Z" />
<path fill="#009fac" d=" M 367.12 117.00 C 379.33 117.00 391.54 116.99 403.75 117.01 C 403.75 142.34 403.74 167.67 403.76 193.00 C 403.69 200.20 403.55 207.50 401.75 214.51 C 398.74 227.42 390.38 239.20 378.59 245.49 C 365.30 253.19 348.61 254.21 334.28 248.86 C 322.25 244.29 312.21 234.88 306.59 223.33 C 301.72 213.10 300.80 201.23 303.14 190.21 C 306.67 174.56 318.35 161.26 332.89 154.79 C 341.87 150.71 351.98 150.45 361.63 151.56 C 361.63 164.95 361.59 178.34 361.66 191.73 C 357.64 188.70 352.15 187.06 347.39 189.36 C 339.74 192.48 336.28 202.95 341.16 209.79 C 345.52 216.81 356.66 218.51 362.56 212.55 C 366.85 207.86 367.16 201.05 367.14 195.03 C 367.11 169.02 367.13 143.01 367.12 117.00 Z" />
<path fill="#0088c8" d=" M 598.25 117.00 C 611.46 117.00 624.67 117.00 637.88 117.00 C 637.88 145.34 637.87 173.67 637.88 202.01 C 637.93 205.74 638.43 210.00 641.40 212.63 C 644.79 215.16 650.61 214.86 652.95 211.03 C 654.90 208.08 654.94 204.42 655.01 201.02 C 654.99 173.01 655.00 145.01 655.00 117.00 C 668.21 117.00 681.42 116.99 694.63 117.01 C 694.60 146.22 694.66 175.43 694.60 204.64 C 694.51 217.73 690.11 231.26 680.43 240.42 C 670.93 249.86 657.18 253.95 644.01 253.54 C 630.68 253.77 616.15 249.05 608.29 237.68 C 600.35 227.29 598.41 213.81 598.27 201.09 C 598.22 173.06 598.27 145.03 598.25 117.00 Z" />
<path fill="#265691" d=" M 916.35 118.47 C 933.06 118.67 949.80 118.21 966.49 118.69 C 974.49 125.96 981.84 133.96 989.61 141.51 C 1009.18 161.23 1029.04 180.66 1048.69 200.32 C 1021.32 227.70 993.76 254.89 966.63 282.50 C 949.98 282.40 933.32 282.71 916.67 282.34 C 938.11 260.23 960.18 238.72 981.87 216.86 C 987.24 211.23 993.13 206.09 998.16 200.16 C 970.83 172.99 943.70 145.61 916.35 118.47 Z" />
<path fill="#265691" d=" M 1016.25 118.47 C 1032.50 118.56 1048.76 118.43 1065.02 118.52 C 1066.80 118.31 1067.86 119.96 1069.05 121.00 C 1095.44 147.57 1122.08 173.90 1148.59 200.36 C 1125.82 222.98 1103.14 245.69 1080.45 268.40 C 1075.96 273.12 1070.94 277.36 1066.82 282.42 C 1049.98 282.46 1033.11 282.75 1016.27 282.27 C 1043.60 255.17 1070.61 227.75 1098.01 200.73 C 1093.43 194.79 1087.51 190.03 1082.41 184.54 C 1060.34 162.53 1038.40 140.39 1016.25 118.47 Z" />
<path fill="#265691" d=" M 1116.15 118.47 C 1132.86 118.66 1149.60 118.22 1166.29 118.68 C 1178.00 129.59 1189.02 141.29 1200.45 152.52 C 1216.06 168.26 1232.02 183.66 1247.53 199.49 C 1248.77 200.48 1247.00 201.66 1246.42 202.43 C 1219.75 229.09 1192.87 255.56 1166.48 282.50 C 1149.71 282.35 1132.92 282.81 1116.17 282.26 C 1131.05 267.45 1145.87 252.57 1160.72 237.73 C 1173.08 225.14 1185.91 212.99 1197.98 200.13 C 1170.62 173.00 1143.55 145.57 1116.15 118.47 Z" />
<path fill="#265691" d=" M 1215.82 118.54 C 1232.22 118.47 1248.63 118.48 1265.04 118.52 C 1267.01 118.39 1268.18 120.31 1269.53 121.45 C 1295.69 147.90 1322.25 173.94 1348.52 200.26 C 1321.28 227.78 1293.61 254.88 1266.49 282.52 C 1249.62 282.32 1232.74 282.84 1215.88 282.25 C 1243.09 254.86 1270.53 227.69 1297.72 200.28 C 1270.30 173.15 1243.19 145.71 1215.82 118.54 Z" />
<path fill="#00af99" d=" M 167.50 151.73 C 179.06 149.86 191.51 151.10 201.74 157.13 C 213.70 164.13 223.24 175.81 226.38 189.45 C 229.41 202.98 227.36 217.98 219.32 229.47 C 212.46 239.36 202.34 247.24 190.63 250.41 C 177.34 253.86 162.54 252.47 150.68 245.30 C 139.15 238.39 129.96 227.12 126.77 213.93 C 123.96 202.20 125.07 189.42 130.53 178.61 C 137.79 164.58 151.80 154.10 167.50 151.73 Z" />
<path fill="#00a7a2" d=" M 266.00 155.04 C 275.44 150.38 286.43 150.24 296.63 151.95 C 296.63 164.95 296.61 177.94 296.63 190.94 C 292.92 189.09 288.12 187.83 284.44 190.40 C 280.59 193.30 279.92 198.57 279.77 203.05 C 279.71 218.78 279.77 234.51 279.75 250.25 C 267.58 250.25 255.42 250.25 243.25 250.25 C 243.24 234.18 243.26 218.10 243.24 202.03 C 243.30 195.03 243.38 187.90 245.37 181.13 C 248.24 170.11 255.62 160.03 266.00 155.04 Z" />
<path fill="#0098b5" d=" M 440.97 158.87 C 451.48 151.84 464.69 149.66 477.10 151.31 C 491.64 153.07 504.80 162.17 512.31 174.63 C 518.43 184.36 520.09 196.23 518.96 207.52 C 500.47 207.48 481.98 207.52 463.50 207.50 C 461.86 201.83 462.14 195.80 464.04 190.24 C 470.25 190.26 476.46 190.26 482.67 190.24 C 481.71 186.96 480.53 183.37 477.47 181.44 C 472.31 178.16 464.78 178.99 460.64 183.58 C 456.05 188.46 454.73 195.53 455.08 202.03 C 455.38 207.50 456.84 213.26 460.74 217.30 C 464.11 220.90 469.76 222.29 474.33 220.32 C 476.74 219.34 478.68 217.56 480.61 215.86 C 487.55 224.14 494.41 232.50 501.35 240.80 C 490.25 249.43 475.84 253.77 461.84 251.75 C 449.32 250.52 437.73 243.94 429.62 234.45 C 419.26 222.80 416.02 206.09 418.92 191.03 C 421.24 177.79 429.89 166.22 440.97 158.87 Z" />
<path fill="#0090bf" d=" M 557.13 154.98 C 566.54 150.37 577.48 150.24 587.63 151.95 C 587.63 164.95 587.61 177.94 587.63 190.93 C 583.92 189.09 579.13 187.83 575.45 190.40 C 571.61 193.28 570.92 198.51 570.78 202.97 C 570.71 218.73 570.77 234.49 570.75 250.25 C 558.58 250.25 546.42 250.25 534.25 250.25 C 534.24 234.17 534.26 218.10 534.24 202.03 C 534.30 195.04 534.37 187.93 536.35 181.17 C 539.23 170.09 546.67 159.95 557.13 154.98 Z" />
<path fill="#0080d2" d=" M 723.23 172.36 C 733.37 156.89 753.07 149.02 771.17 151.39 C 782.93 152.58 794.10 158.23 802.17 166.85 C 811.71 176.61 816.68 190.42 815.83 204.02 C 815.27 228.75 793.64 251.16 768.86 252.19 C 764.59 252.47 760.34 252.07 756.11 251.66 C 756.12 238.27 756.17 224.87 756.08 211.47 C 759.80 214.27 764.73 216.01 769.31 214.31 C 777.15 211.84 781.44 201.86 777.37 194.59 C 773.61 187.00 762.49 184.47 755.98 189.95 C 751.28 194.21 750.75 201.03 750.63 206.96 C 750.60 233.39 750.65 259.82 750.61 286.25 C 738.41 286.25 726.20 286.25 714.00 286.25 C 714.01 259.84 713.98 233.44 714.02 207.03 C 714.14 194.98 716.10 182.39 723.23 172.36 Z" />
<path fill="#0078db" d=" M 840.46 170.57 C 850.93 156.30 869.71 149.13 887.11 151.38 C 900.55 152.69 913.13 159.93 921.38 170.57 C 929.18 180.18 932.68 192.82 931.77 205.10 C 930.66 229.38 909.33 251.11 884.96 252.18 C 880.66 252.48 876.37 252.08 872.11 251.66 C 872.12 238.27 872.17 224.87 872.08 211.47 C 875.80 214.27 880.72 216.01 885.30 214.32 C 893.13 211.86 897.43 201.89 893.39 194.62 C 889.63 186.99 878.47 184.46 871.94 189.98 C 867.27 194.24 866.75 201.05 866.63 206.97 C 866.60 233.40 866.65 259.83 866.61 286.26 C 854.40 286.24 842.20 286.26 830.00 286.25 C 830.03 259.49 829.94 232.73 830.05 205.97 C 830.17 193.53 832.73 180.63 840.46 170.57 Z" />
<path fill="#ffffff" d=" M 172.38 187.48 C 180.33 184.81 189.49 190.80 190.41 199.08 C 192.13 207.49 184.92 216.54 176.23 216.15 C 168.09 216.18 161.40 207.99 162.47 200.04 C 162.83 194.33 166.97 189.20 172.38 187.48 Z" />
</svg>
